. 
 
http://www.torrenting.com          :     Once & For all ;)


               www . Torrenting . Com 

(((((((((((((= Enjoy No RAR releases =))))))))))))))))))))


...................................NFO:....................................

.[img]http://i.imgbox.com/aacGi58C.jpg
[/img]


[color=green][size=3]General Info[/size][/color]
ENCODER     : Kobe
Source Video: DVDR-MPTDVD
Source Audio: DVDR-MPTDVD 
Channel     : 6 channels 
IMDB        : http://www.imdb.com/title/tt1093357/
subs        : None  

Video
ID                                       : 0
Format                                   : MPEG-4 Visual
Format profile                           : Advanced Simple@L5
Format settings, BVOP                    : 2
Format settings, QPel                    : No
Format settings, GMC                     : No warppoints
Format settings, Matrix                  : Default (H.263)
Muxing mode                              : Packed bitstream
Codec ID                                 : XVID
Codec ID/Hint                            : XviD
Duration                                 : 1h 28mn
Bit rate                                 : 1 795 Kbps
Width                                    : 720 pixels
Height                                   : 304 pixels
Display aspect ratio                     : 2.35:1
Frame rate                               : 23.976 fps
Color space                              : YUV
Chroma subsampling                       : 4:2:0
Bit depth                                : 8 bits
Scan type                                : Progressive
Compression mode                         : Lossy
Bits/(Pixel*Frame)                       : 0.342
Stream size                              : 1.12 GiB (80%)
Writing library                          : XviD 64


Audio
ID                                       : 1
Format                                   : AC-3
Format/Info                              : Audio Coding 3
Mode extension                           : CM (complete main)
Codec ID                                 : 2000
Duration                                 : 1h 28mn
Bit rate mode                            : Constant
Bit rate                                 : 448 Kbps
Channel(s)                               : 6 channels
Channel positions                        : Front: L C R, Side: L R, LFE
Sampling rate                            : 48.0 KHz
Bit depth                                : 16 bits
Compression mode                         : Lossy
Stream size                              : 285 MiB (20%)
Alignment                                : Aligned on interleaves
Interleave, duration                     : 64 ms (1.53 video frames)
Interleave, preload duration             : 192 ms
Title                                    : dard T80 3_2ch 448Kbps DELAY 0ms










NOTE: 
Thanks to the scene for the DVDR. Just did a straight rip off of it.
Enjoy



 

[color=Green][size=3]Greetz[/size][/color]
Unevano,Mr.hive :rock: R3dRuM,rfcgazza,Killerhz,cooperman,ANALOG,26K,Inspiral,HOPE,Toffee :rock:, KoDeKinG :P 

[img]http://i.imgbox.com/aahMcWkH.png[/img]
[img]http://i.imgbox.com/aakiTUpc.png[/img]
[img]http://i.imgbox.com/aarC1Egd.png[/img]




[img]http://i.imgbox.com/aacw6ohs.jpg[/img]